<svg width="1389" height="522" viewBox="0 0 1389 522" fill="none" xmlns="http://www.w3.org/2000/svg">
<path d="M906.034 283.747C913.608 285.907 912.397 296.993 904.535 297.466L-11.7058 352.621C-14.3189 352.778 -16.8015 351.464 -18.1409 349.215L-135.273 152.515C-136.662 150.183 -136.577 147.258 -135.056 145.01L-48.1951 16.6702C-46.4998 14.1653 -43.3873 13.0326 -40.4785 13.862L906.034 283.747Z" fill="url(#paint0_linear_352_112)"/>
<path d="M1172.46 292.006L1388 216.001L1335.64 313.538C1329.98 324.085 1317.85 329.403 1306.26 326.421L1172.46 292.006Z" fill="url(#paint1_linear_352_112)"/>
<path d="M1249 327.036C1243.64 336.558 1233.11 343 1220.96 343H832.128C814.367 343 800 329.289 800 312.373V303.74H818.141C820.2 303.782 822.192 303.009 823.683 301.588C825.174 300.167 826.044 298.214 826.102 296.154V260.543C848.291 246.252 874.12 238.65 900.507 238.643H899.714L926.99 238.516C953.568 181.387 1005.04 134 1072.79 134C1140.44 134 1197.18 178.498 1212.62 238.485H1220.96C1238.53 238.485 1248.78 252.069 1248.78 268.827" fill="#54818F"/>
<path d="M1249 311.995H1242.1C1239.52 312.055 1236.95 311.607 1234.54 310.679C1232.14 309.75 1229.94 308.358 1228.07 306.583C1226.2 304.807 1224.71 302.683 1223.67 300.332C1222.62 297.98 1222.06 295.447 1222 292.878V284.086C1222 273.536 1230.99 265 1242.1 265H1248.81" fill="#DD1111"/>
<path d="M1202 327.001C1202 339.731 1196.68 351.94 1187.21 360.942C1177.74 369.943 1164.89 375 1151.5 375C1138.11 375 1125.26 369.943 1115.79 360.942C1106.32 351.94 1101 339.731 1101 327.001C1101 314.27 1106.32 302.061 1115.79 293.059C1125.26 284.058 1138.11 279 1151.5 279C1164.89 279 1177.74 284.058 1187.21 293.059C1196.68 302.061 1202 314.27 1202 327.001Z" fill="#455963"/>
<path d="M1173 327C1173 332.305 1170.73 337.392 1166.7 341.143C1162.67 344.893 1157.2 347 1151.5 347C1145.8 347 1140.33 344.893 1136.3 341.143C1132.27 337.392 1130 332.305 1130 327C1130 321.696 1132.27 316.609 1136.3 312.858C1140.33 309.108 1145.8 307 1151.5 307C1157.2 307 1162.67 309.108 1166.7 312.858C1170.73 316.609 1173 321.696 1173 327Z" fill="#133445"/>
<path d="M958 327.001C958 339.731 952.679 351.94 943.209 360.942C933.738 369.943 920.893 375 907.5 375C894.107 375 881.262 369.943 871.791 360.942C862.321 351.94 857 339.731 857 327.001C857 314.27 862.321 302.061 871.791 293.059C881.262 284.058 894.107 279 907.5 279C920.893 279 933.738 284.058 943.209 293.059C952.679 302.061 958 314.27 958 327.001Z" fill="#455963"/>
<path d="M929 327C929 332.305 926.735 337.392 922.703 341.143C918.671 344.893 913.202 347 907.5 347C901.798 347 896.329 344.893 892.297 341.143C888.265 337.392 886 332.305 886 327C886 321.696 888.265 316.609 892.297 312.858C896.329 309.108 901.798 307 907.5 307C913.202 307 918.671 309.108 922.703 312.858C926.735 316.609 929 321.696 929 327Z" fill="#133445"/>
<path d="M802.211 280.842V280.747C809.309 273.223 817.298 266.592 826 261V296.449C826 300.62 822.43 304 818.07 304H800V283.117L802.211 280.842Z" fill="#F5BB1D"/>
<path d="M1079.92 154C1131.77 157.116 1174.47 191.767 1187 238H1079.92V154ZM1060.08 238H953C973.373 195.292 1010.89 159.508 1060.08 154.378V238Z" fill="#7DB7C9"/>
<path opacity="0.33" d="M861.454 263.312C861.346 262.223 860.882 261.378 860.064 260.775C859.245 260.172 858.134 259.871 856.731 259.871C855.777 259.871 854.972 260.006 854.315 260.276C853.659 260.536 853.155 260.901 852.804 261.369C852.462 261.836 852.291 262.367 852.291 262.961C852.273 263.456 852.377 263.888 852.601 264.256C852.835 264.625 853.155 264.945 853.56 265.214C853.964 265.475 854.432 265.705 854.963 265.903C855.494 266.092 856.061 266.254 856.663 266.388L859.146 266.982C860.352 267.252 861.458 267.612 862.466 268.062C863.473 268.512 864.346 269.065 865.084 269.722C865.821 270.378 866.393 271.152 866.797 272.043C867.211 272.933 867.423 273.954 867.432 275.106C867.423 276.797 866.991 278.263 866.136 279.505C865.291 280.737 864.067 281.696 862.466 282.379C860.873 283.054 858.953 283.391 856.704 283.391C854.473 283.391 852.53 283.049 850.874 282.366C849.228 281.682 847.941 280.67 847.015 279.33C846.097 277.98 845.616 276.311 845.571 274.323H851.225C851.288 275.25 851.553 276.023 852.021 276.644C852.498 277.256 853.132 277.719 853.924 278.034C854.725 278.34 855.629 278.493 856.636 278.493C857.626 278.493 858.485 278.349 859.214 278.061C859.951 277.773 860.523 277.373 860.927 276.86C861.332 276.347 861.535 275.758 861.535 275.092C861.535 274.472 861.35 273.95 860.981 273.527C860.622 273.104 860.091 272.744 859.389 272.447C858.696 272.151 857.846 271.881 856.839 271.638L853.829 270.882C851.499 270.315 849.66 269.429 848.31 268.224C846.961 267.018 846.291 265.394 846.3 263.352C846.291 261.679 846.736 260.217 847.636 258.967C848.544 257.716 849.79 256.74 851.373 256.038C852.957 255.337 854.756 254.986 856.771 254.986C858.822 254.986 860.613 255.337 862.142 256.038C863.68 256.74 864.877 257.716 865.731 258.967C866.586 260.217 867.027 261.665 867.054 263.312H861.454ZM1020.88 255.364H1028.08L1035.69 273.932H1036.02L1043.63 255.364H1050.83V283H1045.17V265.012H1044.94L1037.78 282.865H1033.92L1026.77 264.945H1026.54V283H1020.88V255.364ZM1187.57 255.364H1194.78L1202.39 273.932H1202.71L1210.32 255.364H1217.53V283H1211.86V265.012H1211.63L1204.48 282.865H1200.62L1193.47 264.945H1193.24V283H1187.57V255.364Z" fill="#393636"/>
<defs>
<linearGradient id="paint0_linear_352_112" x1="22.2487" y1="214.742" x2="836.562" y2="262.045" gradientUnits="userSpaceOnUse">
<stop stop-color="#F5BB1D" stop-opacity="0"/>
<stop offset="0.501" stop-color="#F5BB1D" stop-opacity="0.3"/>
<stop offset="1" stop-color="#F5BB1D"/>
</linearGradient>
<linearGradient id="paint1_linear_352_112" x1="1175.98" y1="290.787" x2="1320.48" y2="316.786" gradientUnits="userSpaceOnUse">
<stop stop-color="#DD1111"/>
<stop offset="0.541" stop-color="#DD1111" stop-opacity="0.67"/>
<stop offset="1" stop-color="#DC1111" stop-opacity="0"/>
</linearGradient>
</defs>
</svg>
