<svg width="520" height="433" viewBox="0 0 520 433" fill="none" xmlns="http://www.w3.org/2000/svg">
<rect y="156" width="20.8" height="253.76" rx="1" fill="#DD1111"/>
<rect x="8.31982" y="131.04" width="4.16" height="56.16" fill="#DD1111"/>
<rect x="8.31982" y="376.48" width="4.16" height="56.16" fill="#DD1111"/>
<rect x="205.92" y="22.8799" width="20.8" height="180.96" rx="1" fill="#DD1111"/>
<rect x="214.24" width="4.16" height="39.52" fill="#DD1111"/>
<rect x="214.24" y="185.12" width="4.16" height="39.52" fill="#DD1111"/>
<rect x="68.6401" y="60.3201" width="20.8" height="120.64" rx="1" fill="#DD1111"/>
<rect x="76.96" y="47.8401" width="4.16" height="24.96" fill="#DD1111"/>
<rect x="76.96" y="166.4" width="4.16" height="27.04" fill="#DD1111"/>
<rect x="272.48" y="197.6" width="20.8" height="62.4" rx="1" fill="#DD1111"/>
<rect x="280.8" y="185.12" width="4.16" height="24.96" fill="#DD1111"/>
<rect x="280.8" y="230.88" width="4.16" height="27.04" fill="#DD1111"/>
<rect x="35.3599" y="64.48" width="20.8" height="183.04" rx="1" fill="#2FE225"/>
<rect x="43.6802" y="47.8401" width="4.16" height="56.16" fill="#2FE225"/>
<rect x="43.6802" y="220.48" width="4.16" height="56.16" fill="#2FE225"/>
<rect x="339.04" y="56.1599" width="20.8" height="164.32" rx="1" fill="#2FE225"/>
<rect x="347.36" y="47.8401" width="4.16" height="56.16" fill="#2FE225"/>
<rect x="347.36" y="197.6" width="4.16" height="56.16" fill="#2FE225"/>
<rect x="104" y="87.3601" width="20.8" height="89.44" rx="1" fill="#2FE225"/>
<rect x="112.32" y="72.8" width="4.16" height="31.2" fill="#2FE225"/>
<rect x="112.32" y="164.32" width="4.16" height="31.2" fill="#2FE225"/>
<rect x="137.28" y="56.1599" width="20.8" height="91.52" rx="1" fill="#2FE225"/>
<rect x="145.6" y="43.6799" width="4.16" height="29.12" fill="#2FE225"/>
<rect x="145.6" y="135.2" width="4.16" height="29.12" fill="#2FE225"/>
<rect x="172.64" y="12.48" width="20.8" height="91.52" rx="1" fill="#2FE225"/>
<rect x="180.96" width="4.16" height="31.2" fill="#2FE225"/>
<rect x="180.96" y="91.52" width="4.16" height="29.12" fill="#2FE225"/>
<rect x="239.2" y="108.16" width="20.8" height="91.52" rx="1" fill="#2FE225"/>
<rect x="247.52" y="95.6799" width="4.16" height="31.2" fill="#2FE225"/>
<rect x="305.76" y="203.84" width="20.8" height="24.96" rx="1" fill="#2FE225"/>
<rect x="314.08" y="197.6" width="4.16" height="8.32" fill="#2FE225"/>
<rect x="247.52" y="187.2" width="4.16" height="29.12" fill="#2FE225"/>
<rect x="372.32" y="56.1599" width="20.8" height="180.96" rx="1" fill="#DD1111"/>
<rect x="380.64" y="49.9199" width="4.16" height="39.52" fill="#DD1111"/>
<rect x="380.64" y="210.08" width="2" height="19" fill="#DD1111"/>
<rect x="499.2" width="20.8" height="180.96" rx="1" fill="#DD1111"/>
<rect x="507.52" y="153.92" width="2" height="19" fill="#DD1111"/>
<rect x="405.6" y="81.1201" width="20.8" height="151.84" rx="1" fill="#2FE225"/>
<rect x="413.92" y="60.3201" width="4.16" height="52" fill="#2FE225"/>
<rect x="432.64" y="20.8" width="20.8" height="74.88" rx="1" fill="#2FE225"/>
<rect x="440.96" y="8.32007" width="4.16" height="52" fill="#2FE225"/>
<rect x="413.92" y="220.48" width="4.16" height="29.12" fill="#2FE225"/>
<rect x="465.92" y="4.15991" width="20.8" height="24.96" rx="1" fill="#2FE225"/>
<rect x="474.24" width="4.16" height="8.32" fill="#2FE225"/>
<rect x="474.24" y="29.1201" width="4.16" height="4.16" fill="#2FE225"/>
</svg>
