<svg width="436" height="146" viewBox="0 0 436 146" fill="none" xmlns="http://www.w3.org/2000/svg">
<g filter="url(#filter0_d_632_163)">
<path d="M1 14H375.02C391.809 14 400.204 14 406.57 17.3708C411.708 20.091 415.909 24.2925 418.629 29.43C422 35.7964 422 44.1909 422 60.98V85.02C422 101.809 422 110.204 418.629 116.57C415.909 121.708 411.708 125.909 406.57 128.629C400.204 132 391.809 132 375.02 132H1V14Z" fill="#402EAA"/>
</g>
<path d="M157.769 72.2727C157.769 75.0154 157.256 77.3645 156.228 79.32C155.209 81.2672 153.817 82.7586 152.052 83.7944C150.295 84.8301 148.303 85.348 146.074 85.348C143.845 85.348 141.848 84.8301 140.083 83.7944C138.326 82.7504 136.934 81.2547 135.907 79.3075C134.888 77.352 134.378 75.0071 134.378 72.2727C134.378 69.5301 134.888 67.1851 135.907 65.2379C136.934 63.2824 138.326 61.7868 140.083 60.7511C141.848 59.7153 143.845 59.1974 146.074 59.1974C148.303 59.1974 150.295 59.7153 152.052 60.7511C153.817 61.7868 155.209 63.2824 156.228 65.2379C157.256 67.1851 157.769 69.5301 157.769 72.2727ZM153.133 72.2727C153.133 70.3421 152.831 68.7139 152.226 67.3881C151.629 66.0541 150.801 65.0473 149.74 64.3679C148.68 63.6802 147.457 63.3363 146.074 63.3363C144.69 63.3363 143.468 63.6802 142.407 64.3679C141.347 65.0473 140.514 66.0541 139.909 67.3881C139.312 68.7139 139.014 70.3421 139.014 72.2727C139.014 74.2034 139.312 75.8357 139.909 77.1697C140.514 78.4955 141.347 79.5022 142.407 80.19C143.468 80.8694 144.69 81.2092 146.074 81.2092C147.457 81.2092 148.68 80.8694 149.74 80.19C150.801 79.5022 151.629 78.4955 152.226 77.1697C152.831 75.8357 153.133 74.2034 153.133 72.2727ZM170.81 85V59.5455H175.422V70.3214H187.217V59.5455H191.84V85H187.217V74.1868H175.422V85H170.81ZM200.124 85H195.202L204.164 59.5455H209.856L218.83 85H213.908L207.109 64.7656H206.91L200.124 85ZM200.286 75.0195H213.709V78.7234H200.286V75.0195ZM242.774 68.1339H238.126C237.993 67.3716 237.749 66.6963 237.392 66.108C237.036 65.5114 236.593 65.0059 236.063 64.5916C235.532 64.1773 234.927 63.8666 234.248 63.6594C233.577 63.444 232.852 63.3363 232.073 63.3363C230.689 63.3363 229.463 63.6843 228.394 64.3803C227.325 65.0681 226.488 66.079 225.883 67.413C225.278 68.7388 224.976 70.3587 224.976 72.2727C224.976 74.2199 225.278 75.8606 225.883 77.1946C226.496 78.5204 227.333 79.523 228.394 80.2024C229.463 80.8736 230.685 81.2092 232.06 81.2092C232.823 81.2092 233.535 81.1097 234.198 80.9109C234.869 80.7037 235.47 80.4013 236 80.0036C236.539 79.6058 236.991 79.117 237.355 78.5369C237.728 77.9569 237.985 77.294 238.126 76.5483L242.774 76.5732C242.6 77.7829 242.223 78.9181 241.643 79.9787C241.071 81.0393 240.322 81.9756 239.394 82.7876C238.466 83.5914 237.38 84.2211 236.137 84.6768C234.894 85.1243 233.515 85.348 231.998 85.348C229.761 85.348 227.764 84.8301 226.008 83.7944C224.251 82.7586 222.867 81.263 221.856 79.3075C220.845 77.352 220.34 75.0071 220.34 72.2727C220.34 69.5301 220.85 67.1851 221.869 65.2379C222.888 63.2824 224.276 61.7868 226.032 60.7511C227.789 59.7153 229.778 59.1974 231.998 59.1974C233.415 59.1974 234.733 59.3963 235.951 59.794C237.169 60.1918 238.254 60.7759 239.207 61.5465C240.16 62.3088 240.943 63.2451 241.556 64.3555C242.178 65.4575 242.584 66.717 242.774 68.1339Z" fill="white"/>
<defs>
<filter id="filter0_d_632_163" x="-12.8" y="0.2" width="448.6" height="145.6" filterUnits="userSpaceOnUse" color-interpolation-filters="sRGB">
<feFlood flood-opacity="0" result="BackgroundImageFix"/>
<feColorMatrix in="SourceAlpha" type="matrix" values="0 0 0 0 0 0 0 0 0 0 0 0 0 0 0 0 0 0 127 0" result="hardAlpha"/>
<feMorphology radius="4" operator="dilate" in="SourceAlpha" result="effect1_dropShadow_632_163"/>
<feOffset/>
<feGaussianBlur stdDeviation="4.9"/>
<feComposite in2="hardAlpha" operator="out"/>
<feColorMatrix type="matrix" values="0 0 0 0 0 0 0 0 0 0 0 0 0 0 0 0 0 0 0.25 0"/>
<feBlend mode="normal" in2="BackgroundImageFix" result="effect1_dropShadow_632_163"/>
<feBlend mode="normal" in="SourceGraphic" in2="effect1_dropShadow_632_163" result="shape"/>
</filter>
</defs>
</svg>
