<svg width="316" height="580" viewBox="0 0 316 580" fill="none" xmlns="http://www.w3.org/2000/svg">
<path d="M237.184 124.527C237.184 124.527 249.332 100.121 251.051 89.7485C251.051 89.7485 261.923 62.1805 251.051 55.136C251.051 55.136 246.891 40.9915 239.958 48.8126L225.037 63.0126L237.184 124.527Z" fill="#433062"/>
<path d="M236.463 129.63L223.151 62.4023L238.682 47.5922C240.734 45.2625 242.898 44.375 245.117 44.8742C249.332 45.8172 251.717 52.0297 252.383 54.0266C263.088 61.9586 253.548 87.5852 252.605 90.1367C250.774 100.676 239.126 124.195 238.627 125.193L236.463 129.63ZM226.812 63.5672L237.85 119.313C241.4 111.825 248.167 96.8484 249.388 89.4711L249.443 89.3047L249.499 89.1383C252.383 81.8164 258.096 61.6812 250.164 56.5227L249.665 56.1898L249.499 55.5797C248.833 53.3609 246.781 48.6461 244.506 48.1469C243.563 47.925 242.454 48.5352 241.234 49.9219L241.123 50.0328L226.812 63.5672Z" fill="#323E6B"/>
<path d="M82.9815 119.646C82.9815 119.646 43.8205 88.9719 54.9143 76.3805C54.9143 76.3805 61.0713 46.8157 71.6658 45.318L75.3268 37.6633L92.5775 49.3672L82.9815 119.646Z" fill="#433062"/>
<path d="M84.2572 122.752L81.983 120.977C80.7627 120.034 52.751 97.9023 51.3642 82.9812C51.0869 80.1523 51.808 77.6562 53.4166 75.6594C54.3595 71.1664 60.1283 46.6492 70.5564 43.8758L74.7166 35.2227L94.408 48.5906L84.2572 122.752ZM76.0478 40.1594L72.8306 46.8711L71.9431 46.982C64.233 48.0359 58.2424 68.8367 56.5783 76.7133L56.4673 77.157L56.19 77.4898C54.9697 78.8766 54.4705 80.5406 54.6924 82.6484C55.7463 93.8531 75.0494 110.882 81.7611 116.484L90.8025 50.1992L76.0478 40.1594Z" fill="#323E6B"/>
<path d="M39 346.5C39 366.133 42.0651 385.573 48.0203 403.711C53.9754 421.849 62.7041 438.33 73.7078 452.212C84.7116 466.095 97.7749 477.107 112.152 484.62C126.529 492.133 141.938 496 157.5 496C173.062 496 188.471 492.133 202.848 484.62C217.225 477.107 230.288 466.095 241.292 452.212C252.296 438.33 261.025 421.849 266.98 403.711C272.935 385.573 276 366.133 276 346.5C276 326.867 272.935 307.427 266.98 289.289C261.025 271.151 252.296 254.67 241.292 240.788C230.288 226.905 217.225 215.893 202.848 208.38C188.471 200.867 173.062 197 157.5 197C141.938 197 126.529 200.867 112.152 208.38C97.7749 215.893 84.7116 226.905 73.7078 240.788C62.7041 254.67 53.9754 271.151 48.0203 289.289C42.0651 307.427 39 326.867 39 346.5Z" fill="#433062"/>
<path d="M157.5 498C125.307 498 95.0576 482.229 72.3008 453.618C49.544 425.006 37 386.974 37 346.5C37 306.026 49.544 267.994 72.3008 239.382C95.0576 210.771 125.307 195 157.5 195C189.693 195 219.942 210.771 242.699 239.382C265.456 267.994 278 306.026 278 346.5C278 386.974 265.456 425.006 242.699 453.618C219.887 482.229 189.637 498 157.5 498ZM157.5 199.257C92.8929 199.257 40.3858 265.342 40.3858 346.5C40.3858 427.728 92.9484 493.743 157.5 493.743C222.052 493.743 274.614 427.658 274.614 346.5C274.614 265.342 222.052 199.257 157.5 199.257Z" fill="#323E6B"/>
<path d="M157.587 271.464L118.481 203.792H196.637L157.587 271.464Z" fill="white"/>
<path d="M157.587 274.792L115.652 202.128H199.577L157.587 274.792ZM121.366 205.456L157.531 268.136L193.697 205.456H121.366Z" fill="#323E6B"/>
<g filter="url(#filter0_i_502_18)">
<path d="M158.363 204.846L134.29 246.559H182.437L158.363 204.846Z" fill="#323E6B"/>
</g>
<path d="M79.043 52.4734V159.916C79.043 184.045 98.7898 203.792 122.919 203.792H193.808C217.937 203.792 237.684 184.045 237.684 159.916V52.4734" fill="#E6D8DF"/>
<path d="M193.752 205.456H122.919C97.7914 205.456 77.3789 185.044 77.3789 159.916V52.4734H80.707V159.916C80.707 183.213 99.6219 202.128 122.919 202.128H193.808C217.105 202.128 236.02 183.213 236.02 159.916V52.4734H239.348V159.916C239.348 185.044 218.88 205.456 193.752 205.456Z" fill="#323E6B"/>
<g filter="url(#filter1_i_502_18)">
<path d="M75.9365 98.0134C75.9365 108.002 79.9046 117.582 86.9678 124.645C94.0311 131.709 103.611 135.677 113.6 135.677C123.589 135.677 133.169 131.709 140.232 124.645C147.295 117.582 151.263 108.002 151.263 98.0134C151.263 88.0245 147.295 78.4447 140.232 71.3814C133.169 64.3182 123.589 60.3501 113.6 60.3501C103.611 60.3501 94.0311 64.3182 86.9678 71.3814C79.9046 78.4447 75.9365 88.0245 75.9365 98.0134Z" fill="#323E6B"/>
</g>
<path d="M113.6 137.396C91.9115 137.396 74.2725 119.757 74.2725 98.0688C74.2725 76.3805 91.9115 58.7415 113.6 58.7415C135.288 58.7415 152.927 76.3805 152.927 98.0688C152.927 119.757 135.344 137.396 113.6 137.396ZM113.6 62.0141C93.742 62.0141 77.6006 78.1555 77.6006 98.0133C77.6006 117.871 93.742 134.013 113.6 134.013C133.458 134.013 149.599 117.871 149.599 98.0133C149.599 78.1555 133.458 62.0141 113.6 62.0141Z" fill="#323E6B"/>
<g filter="url(#filter2_i_502_18)">
<path d="M165.075 98.0134C165.075 108.002 169.043 117.582 176.107 124.645C183.17 131.709 192.75 135.677 202.738 135.677C212.727 135.677 222.307 131.709 229.37 124.645C236.434 117.582 240.402 108.002 240.402 98.0134C240.402 93.0674 239.428 88.1698 237.535 83.6003C235.642 79.0307 232.868 74.8788 229.37 71.3814C225.873 67.8841 221.721 65.1098 217.152 63.217C212.582 61.3243 207.685 60.3501 202.738 60.3501C197.792 60.3501 192.895 61.3243 188.325 63.217C183.756 65.1098 179.604 67.8841 176.107 71.3814C172.609 74.8788 169.835 79.0307 167.942 83.6003C166.049 88.1698 165.075 93.0674 165.075 98.0134Z" fill="#323E6B"/>
</g>
<path d="M202.738 137.396C181.05 137.396 163.411 119.757 163.411 98.0688C163.411 76.3805 181.05 58.7415 202.738 58.7415C224.427 58.7415 242.066 76.3805 242.066 98.0688C242.066 119.757 224.427 137.396 202.738 137.396ZM202.738 62.0141C182.881 62.0141 166.739 78.1555 166.739 98.0133C166.739 117.871 182.881 134.013 202.738 134.013C222.596 134.013 238.738 117.871 238.738 98.0133C238.738 78.1555 222.596 62.0141 202.738 62.0141Z" fill="#323E6B"/>
<path d="M169.124 106.223H165.796C165.796 102.118 162.468 98.7898 158.363 98.7898C154.259 98.7898 150.931 102.118 150.931 106.223H147.603C147.603 100.287 152.428 95.4616 158.363 95.4616C164.299 95.4062 169.124 100.287 169.124 106.223ZM158.197 197.58C153.538 197.58 148.046 196.47 148.046 193.309H151.374C151.374 193.087 151.263 192.92 151.263 192.865C151.652 193.309 154.203 194.196 158.197 194.196C162.191 194.196 164.742 193.309 165.131 192.865C165.075 192.92 165.02 193.031 165.02 193.309H168.348C168.348 196.47 162.912 197.58 158.197 197.58Z" fill="#323E6B"/>
<path d="M84.8119 2.55151C84.8119 2.55151 52.5846 17.3062 79.0432 49.6445C79.0432 49.6445 68.6151 60.4054 131.184 55.4132C131.184 55.4132 153.149 60.239 173.506 57.9093C173.506 57.9093 209.339 61.0156 237.684 52.9171C237.684 52.9171 245.56 36.7203 240.457 34.6679C235.354 32.6156 238.738 17.5835 201.074 21.7437C201.074 21.7437 178.277 -0.443797 154.924 6.54527C154.924 6.54527 130.962 3.21714 116.762 15.3093C116.651 15.1984 86.6424 26.3476 84.8119 2.55151Z" fill="#433062"/>
<path d="M161.414 60.1836C146.327 60.1836 133.125 57.5211 131.073 57.0773C112.38 58.575 98.3461 58.7969 89.3047 57.743C82.1492 56.9109 78.2664 55.3578 77.1016 52.8063C76.5469 51.6969 76.7133 50.5875 77.0461 49.7555C68.6703 39.2164 65.5086 29.343 67.561 20.357C70.5563 7.32188 83.5914 1.22031 84.1461 0.998439L86.3094 0L86.4758 2.38516C86.8641 7.71016 88.861 11.5375 92.3 13.7008C100.232 18.7484 113.766 14.3664 115.819 13.7008C129.63 2.21875 151.541 4.32656 154.702 4.71484C176.779 -1.60859 197.802 16.4188 201.573 19.9133C230.75 16.8625 235.853 25.4047 238.959 30.5078C239.736 31.7836 240.346 32.782 241.012 33.0594C242.066 33.5031 242.898 34.3352 243.341 35.5C245.283 40.6031 239.791 52.2516 239.126 53.5828L238.793 54.2484L238.072 54.4703C210.781 62.2914 176.224 59.7398 173.451 59.518C169.457 60.0172 165.352 60.1836 161.414 60.1836ZM131.295 53.6937L131.516 53.7492C131.738 53.8047 153.427 58.5195 173.284 56.1898H173.617C173.95 56.2453 208.895 59.1297 236.463 51.475C238.571 46.9266 241.289 39.4383 240.235 36.7203C240.069 36.332 239.902 36.2211 239.791 36.1656C238.072 35.4445 237.129 33.8914 236.13 32.2828C233.413 27.7898 228.92 20.3016 201.185 23.3523L200.409 23.4633L199.854 22.9086C199.632 22.6867 177.445 1.49766 155.313 8.09844L154.98 8.20938L154.647 8.15391C154.425 8.09844 131.239 5.10313 117.76 16.5297L117.538 16.6961L117.261 16.807C116.595 17.0844 100.509 22.9641 90.525 16.5852C86.7532 14.1445 84.368 10.3727 83.4805 5.21406C79.9305 7.37734 72.775 12.7023 70.8336 21.1891C68.9477 29.343 72.1649 38.5508 80.3742 48.5906L81.3172 49.7555L80.2633 50.8094C80.2078 50.8648 79.986 51.1422 80.1524 51.4195C80.6516 52.418 85.5328 57.3547 131.073 53.7492L131.295 53.6937Z" fill="#323E6B"/>
<path d="M289.356 532H26.6439C22.9898 532 20 528.068 20 523.261V249.739C20 244.932 22.9898 241 26.6439 241H289.356C293.01 241 296 244.932 296 249.739V523.261C296 528.068 293.01 532 289.356 532Z" fill="#323E6B"/>
<path d="M289.675 532H26.3251C21.7185 532 18 527.177 18 521.201V250.799C18 244.823 21.7185 240 26.3251 240H289.675C294.281 240 298 244.823 298 250.799V521.201C298 527.177 294.281 532 289.675 532ZM26.3251 244.32C23.55 244.32 21.33 247.199 21.33 250.799V521.201C21.33 524.801 23.55 527.68 26.3251 527.68H289.675C292.45 527.68 294.67 524.801 294.67 521.201V250.799C294.67 247.199 292.45 244.32 289.675 244.32H26.3251Z" fill="white"/>
<path d="M20 391C14.5556 391 9.44445 387.339 5.66667 380.65C-1.88889 367.343 -1.88889 345.657 5.66667 332.35C9.44445 325.661 14.5556 322 20 322C25.4445 322 30.5556 325.661 34.3333 332.35C41.8889 345.657 41.8889 367.343 34.3333 380.65C30.5556 387.339 25.4445 391 20 391ZM20 326.224C15.6667 326.224 11.5 329.252 8.33334 334.814C1.55556 346.784 1.55556 366.216 8.33334 378.115C11.5 383.678 15.6111 386.705 20 386.705C24.3333 386.705 28.5 383.678 31.6667 378.115C38.4445 366.146 38.4445 346.713 31.6667 334.814C28.4445 329.322 24.3333 326.224 20 326.224Z" fill="#323E6B"/>
<path d="M309.588 379.462C302.373 392.179 290.627 392.179 283.412 379.462C276.196 366.745 276.196 346.185 283.412 333.538C290.627 320.821 302.373 320.821 309.588 333.538C316.804 346.185 316.804 366.745 309.588 379.462Z" fill="#E6D8DF"/>
<path d="M296 391C290.556 391 285.444 387.339 281.667 380.65C274.111 367.343 274.111 345.657 281.667 332.35C285.444 325.661 290.556 322 296 322C301.444 322 306.556 325.661 310.333 332.35C317.889 345.657 317.889 367.343 310.333 380.65C306.556 387.339 301.444 391 296 391ZM296 326.224C291.667 326.224 287.5 329.252 284.333 334.814C277.556 346.784 277.556 366.216 284.333 378.115C287.5 383.678 291.611 386.705 296 386.705C300.333 386.705 304.5 383.678 307.667 378.115C314.444 366.146 314.444 346.713 307.667 334.814C304.5 329.322 300.389 326.224 296 326.224Z" fill="#323E6B"/>
<g filter="url(#filter3_d_502_18)">
<path d="M155.867 157.143C155.867 157.143 131.128 153.038 123.473 160.915C123.473 160.915 113.766 169.624 119.147 180.606L121.254 187.429L131.794 183.269L135.676 190.979L138.505 181.827C138.838 180.717 140.502 180.773 140.724 181.938L141.944 188.372L148.822 179.885L161.081 190.313L162.579 180.717L169.679 186.985L176.058 179.885L178.443 188.76L186.486 179.885L193.419 189.038L198.023 181.106C198.023 181.106 205.123 170.566 199.299 164.742C199.299 164.742 198.301 154.758 190.535 155.313L155.867 157.143Z" fill="#433062"/>
</g>
<path d="M136.065 195.361L131.017 185.321L120.201 189.592L117.649 181.216C112.103 169.79 121.532 160.527 122.309 159.75C130.185 151.652 153.482 155.091 155.978 155.479L190.369 153.704C197.413 153.205 200.187 159.972 200.797 164.077C206.621 170.677 199.965 181.161 199.355 182.048L193.531 192.088L186.32 182.548L177.556 192.199L175.226 183.324L169.79 189.315L163.744 183.99L162.246 193.475L149.045 182.27L140.946 192.199L139.449 184.323L136.065 195.361ZM148.601 177.5L159.861 187.096L161.359 177.444L169.513 184.6L176.835 176.446L179.22 185.321L186.542 177.223L193.198 185.987L196.581 180.162C196.637 180.052 202.794 170.677 198.024 165.907L197.58 165.463L197.524 164.853C197.469 164.52 196.581 156.477 190.591 156.921L155.812 158.752L155.645 158.696C148.989 157.587 130.463 156.034 124.749 161.969L124.638 162.024C124.306 162.357 115.93 170.067 120.7 179.719L120.811 179.996L122.364 185.044L132.626 180.994L135.344 186.375L136.952 181.216C137.341 179.941 138.45 179.164 139.781 179.219C141.113 179.275 142.111 180.218 142.388 181.494L142.943 184.434L148.601 177.5Z" fill="#323E6B"/>
<path d="M234.401 496H82.6532C78.9939 496 76 491.919 76 486.93V280.07C76 275.081 78.9939 271 82.6532 271H234.346C238.005 271 240.999 275.081 240.999 280.07V486.855C241.055 491.919 238.061 496 234.401 496Z" fill="#28335C"/>
<path d="M233.754 498H82.3004C77.7075 498 74 492.926 74 486.64V279.36C74 273.074 77.7075 268 82.3004 268H233.699C238.292 268 241.999 273.074 241.999 279.36V486.564C242.055 492.85 238.292 498 233.754 498ZM82.3004 272.544C79.5336 272.544 77.3201 275.573 77.3201 279.36V486.564C77.3201 490.351 79.5336 493.38 82.3004 493.38H233.699C236.466 493.38 238.679 490.351 238.679 486.564V279.36C238.679 275.573 236.466 272.544 233.699 272.544H82.3004Z" fill="white"/>
<path d="M76.6625 395.349L74 393.352L110.72 344.373L128.359 368.003L163.748 320.799L181.443 344.373L215.501 299L218.163 300.997L181.443 349.92L163.748 326.346L128.359 373.55L110.72 349.92L76.6625 395.349Z" fill="white"/>
<path d="M216.18 301V486H240.18" stroke="white" stroke-width="4"/>
<path d="M32.7347 379.462C25.7143 392.179 14.2857 392.179 7.26531 379.462C0.244897 366.745 0.244897 346.185 7.26531 333.538C14.2857 320.821 25.7143 320.821 32.7347 333.538C39.7551 346.185 39.7551 366.745 32.7347 379.462Z" fill="#E6D8DF"/>
<rect x="182" y="520" width="87" height="60" rx="26" fill="#161616"/>
<rect x="51" y="520" width="87" height="60" rx="26" fill="#161616"/>
<ellipse cx="95" cy="527.5" rx="10" ry="4.5" fill="white"/>
<ellipse cx="226" cy="527.5" rx="10" ry="4.5" fill="white"/>
<defs>
<filter id="filter0_i_502_18" x="134.29" y="204.846" width="54.147" height="48.7124" filterUnits="userSpaceOnUse" color-interpolation-filters="sRGB">
<feFlood flood-opacity="0" result="BackgroundImageFix"/>
<feBlend mode="normal" in="SourceGraphic" in2="BackgroundImageFix" result="shape"/>
<feColorMatrix in="SourceAlpha" type="matrix" values="0 0 0 0 0 0 0 0 0 0 0 0 0 0 0 0 0 0 127 0" result="hardAlpha"/>
<feOffset dx="6" dy="7"/>
<feGaussianBlur stdDeviation="4.1"/>
<feComposite in2="hardAlpha" operator="arithmetic" k2="-1" k3="1"/>
<feColorMatrix type="matrix" values="0 0 0 0 0 0 0 0 0 0 0 0 0 0 0 0 0 0 0.25 0"/>
<feBlend mode="normal" in2="shape" result="effect1_innerShadow_502_18"/>
</filter>
<filter id="filter1_i_502_18" x="75.9365" y="60.3501" width="75.3267" height="79.3267" filterUnits="userSpaceOnUse" color-interpolation-filters="sRGB">
<feFlood flood-opacity="0" result="BackgroundImageFix"/>
<feBlend mode="normal" in="SourceGraphic" in2="BackgroundImageFix" result="shape"/>
<feColorMatrix in="SourceAlpha" type="matrix" values="0 0 0 0 0 0 0 0 0 0 0 0 0 0 0 0 0 0 127 0" result="hardAlpha"/>
<feOffset dy="4"/>
<feGaussianBlur stdDeviation="2"/>
<feComposite in2="hardAlpha" operator="arithmetic" k2="-1" k3="1"/>
<feColorMatrix type="matrix" values="0 0 0 0 0 0 0 0 0 0 0 0 0 0 0 0 0 0 0.25 0"/>
<feBlend mode="normal" in2="shape" result="effect1_innerShadow_502_18"/>
</filter>
<filter id="filter2_i_502_18" x="165.075" y="60.3501" width="75.3267" height="79.3267" filterUnits="userSpaceOnUse" color-interpolation-filters="sRGB">
<feFlood flood-opacity="0" result="BackgroundImageFix"/>
<feBlend mode="normal" in="SourceGraphic" in2="BackgroundImageFix" result="shape"/>
<feColorMatrix in="SourceAlpha" type="matrix" values="0 0 0 0 0 0 0 0 0 0 0 0 0 0 0 0 0 0 127 0" result="hardAlpha"/>
<feOffset dy="4"/>
<feGaussianBlur stdDeviation="2"/>
<feComposite in2="hardAlpha" operator="arithmetic" k2="-1" k3="1"/>
<feColorMatrix type="matrix" values="0 0 0 0 0 0 0 0 0 0 0 0 0 0 0 0 0 0 0.25 0"/>
<feBlend mode="normal" in2="shape" result="effect1_innerShadow_502_18"/>
</filter>
<filter id="filter3_d_502_18" x="109.922" y="155.29" width="99.2718" height="53.2887" filterUnits="userSpaceOnUse" color-interpolation-filters="sRGB">
<feFlood flood-opacity="0" result="BackgroundImageFix"/>
<feColorMatrix in="SourceAlpha" type="matrix" values="0 0 0 0 0 0 0 0 0 0 0 0 0 0 0 0 0 0 127 0" result="hardAlpha"/>
<feOffset dy="10"/>
<feGaussianBlur stdDeviation="3.8"/>
<feComposite in2="hardAlpha" operator="out"/>
<feColorMatrix type="matrix" values="0 0 0 0 0 0 0 0 0 0 0 0 0 0 0 0 0 0 0.25 0"/>
<feBlend mode="normal" in2="BackgroundImageFix" result="effect1_dropShadow_502_18"/>
<feBlend mode="normal" in="SourceGraphic" in2="effect1_dropShadow_502_18" result="shape"/>
</filter>
</defs>
</svg>
