<svg width="338" height="88" viewBox="0 0 338 88" fill="none" xmlns="http://www.w3.org/2000/svg">
<path d="M50.0431 41.3622H47.3869C47.3111 40.9266 47.1715 40.5407 46.9679 40.2045C46.7643 39.8636 46.5109 39.5748 46.2079 39.3381C45.9049 39.1013 45.5592 38.9238 45.171 38.8054C44.7875 38.6823 44.3732 38.6207 43.9281 38.6207C43.1374 38.6207 42.4366 38.8196 41.8258 39.2173C41.215 39.6103 40.7368 40.188 40.3912 40.9503C40.0455 41.7079 39.8727 42.6335 39.8727 43.7273C39.8727 44.84 40.0455 45.7775 40.3912 46.5398C40.7415 47.2973 41.2198 47.8703 41.8258 48.2585C42.4366 48.642 43.135 48.8338 43.921 48.8338C44.3566 48.8338 44.7638 48.777 45.1426 48.6634C45.5261 48.545 45.8694 48.3722 46.1724 48.1449C46.4802 47.9176 46.7382 47.6383 46.9466 47.3068C47.1596 46.9754 47.3064 46.5966 47.3869 46.1705L50.0431 46.1847C49.9437 46.8759 49.7283 47.5246 49.3968 48.1307C49.0701 48.7367 48.6416 49.2718 48.1113 49.7358C47.581 50.1951 46.9608 50.5549 46.2505 50.8153C45.5403 51.071 44.752 51.1989 43.8855 51.1989C42.6071 51.1989 41.466 50.9029 40.4622 50.3111C39.4584 49.7192 38.6677 48.8646 38.09 47.7472C37.5124 46.6297 37.2235 45.2898 37.2235 43.7273C37.2235 42.16 37.5147 40.8201 38.0971 39.7074C38.6795 38.59 39.4726 37.7353 40.4764 37.1435C41.4802 36.5516 42.6165 36.2557 43.8855 36.2557C44.6951 36.2557 45.448 36.3693 46.144 36.5966C46.84 36.8239 47.4603 37.1577 48.0048 37.598C48.5493 38.0336 48.9967 38.5687 49.3471 39.2031C49.7022 39.8329 49.9342 40.5526 50.0431 41.3622ZM51.7459 42.2003V40.0909H61.2914V42.2003H57.7615V51H55.2757V42.2003H51.7459ZM66.0286 51.2202C65.3373 51.2202 64.7147 51.0971 64.1607 50.8509C63.6114 50.5999 63.1758 50.2306 62.8539 49.7429C62.5366 49.2552 62.378 48.6539 62.378 47.9389C62.378 47.3234 62.4917 46.8144 62.7189 46.4119C62.9462 46.0095 63.2563 45.6875 63.6493 45.446C64.0423 45.2045 64.485 45.0223 64.9775 44.8991C65.4746 44.7713 65.9883 44.679 66.5186 44.6222C67.1578 44.5559 67.6763 44.4967 68.074 44.4446C68.4718 44.3878 68.7606 44.3026 68.9405 44.1889C69.1252 44.0705 69.2175 43.8883 69.2175 43.642V43.5994C69.2175 43.0644 69.0589 42.6501 68.7417 42.3565C68.4244 42.063 67.9675 41.9162 67.3709 41.9162C66.7412 41.9162 66.2417 42.0535 65.8723 42.3281C65.5078 42.6027 65.2615 42.9271 65.1337 43.3011L62.7331 42.9602C62.9225 42.2973 63.235 41.7434 63.6706 41.2983C64.1062 40.8485 64.6389 40.5123 65.2686 40.2898C65.8984 40.0625 66.5944 39.9489 67.3567 39.9489C67.8823 39.9489 68.4055 40.0104 68.9263 40.1335C69.4471 40.2566 69.923 40.4602 70.3539 40.7443C70.7847 41.0237 71.1304 41.4048 71.3908 41.8878C71.656 42.3707 71.7885 42.9744 71.7885 43.6989V51H69.3169V49.5014H69.2317C69.0755 49.8045 68.8553 50.0885 68.5712 50.3537C68.2918 50.6141 67.9391 50.8248 67.513 50.9858C67.0916 51.142 66.5968 51.2202 66.0286 51.2202ZM66.6962 49.331C67.2123 49.331 67.6597 49.2292 68.0385 49.0256C68.4173 48.8172 68.7085 48.5426 68.9121 48.2017C69.1204 47.8608 69.2246 47.4891 69.2246 47.0866V45.8011C69.1441 45.8674 69.0068 45.929 68.8127 45.9858C68.6233 46.0426 68.4102 46.0923 68.1735 46.1349C67.9367 46.1776 67.7024 46.2154 67.4703 46.2486C67.2383 46.2817 67.0371 46.3101 66.8667 46.3338C66.4831 46.3859 66.1399 46.4711 65.8368 46.5895C65.5338 46.7079 65.2947 46.8736 65.1195 47.0866C64.9443 47.295 64.8567 47.5649 64.8567 47.8963C64.8567 48.3698 65.0295 48.7273 65.3752 48.9688C65.7208 49.2102 66.1612 49.331 66.6962 49.331ZM73.1522 42.2003V40.0909H82.6976V42.2003H79.1678V51H76.682V42.2003H73.1522ZM86.4849 43.642H89.7022C91.0943 43.642 92.1715 43.9806 92.9338 44.6577C93.6961 45.3348 94.0796 46.2225 94.0843 47.321C94.0796 48.036 93.9044 48.6705 93.5588 49.2244C93.2179 49.7784 92.7207 50.214 92.0673 50.5312C91.4186 50.8438 90.6303 51 89.7022 51H84.7449V40.0909H87.2235V48.8906H89.7022C90.2609 48.8906 90.7202 48.7486 91.0801 48.4645C91.4399 48.1757 91.6199 47.8063 91.6199 47.3565C91.6199 46.883 91.4399 46.4972 91.0801 46.1989C90.7202 45.9006 90.2609 45.7514 89.7022 45.7514H86.4849V43.642ZM110.361 40.0909V51H107.889V40.0909H110.361ZM109.203 45.0199V47.1222C108.924 47.2453 108.607 47.3565 108.252 47.456C107.901 47.5507 107.53 47.6264 107.137 47.6832C106.748 47.7401 106.36 47.7685 105.972 47.7685C104.513 47.7685 103.36 47.4418 102.513 46.7884C101.67 46.1302 101.249 45.1051 101.249 43.7131V40.0767H103.706V43.7131C103.706 44.1818 103.789 44.5582 103.955 44.8423C104.12 45.1264 104.371 45.3348 104.708 45.4673C105.044 45.5952 105.465 45.6591 105.972 45.6591C106.54 45.6591 107.08 45.6023 107.591 45.4886C108.102 45.375 108.64 45.2188 109.203 45.0199ZM116.087 51.2202C115.396 51.2202 114.773 51.0971 114.219 50.8509C113.67 50.5999 113.234 50.2306 112.912 49.7429C112.595 49.2552 112.437 48.6539 112.437 47.9389C112.437 47.3234 112.55 46.8144 112.778 46.4119C113.005 46.0095 113.315 45.6875 113.708 45.446C114.101 45.2045 114.544 45.0223 115.036 44.8991C115.533 44.7713 116.047 44.679 116.577 44.6222C117.216 44.5559 117.735 44.4967 118.133 44.4446C118.53 44.3878 118.819 44.3026 118.999 44.1889C119.184 44.0705 119.276 43.8883 119.276 43.642V43.5994C119.276 43.0644 119.117 42.6501 118.8 42.3565C118.483 42.063 118.026 41.9162 117.43 41.9162C116.8 41.9162 116.3 42.0535 115.931 42.3281C115.566 42.6027 115.32 42.9271 115.192 43.3011L112.792 42.9602C112.981 42.2973 113.294 41.7434 113.729 41.2983C114.165 40.8485 114.698 40.5123 115.327 40.2898C115.957 40.0625 116.653 39.9489 117.415 39.9489C117.941 39.9489 118.464 40.0104 118.985 40.1335C119.506 40.2566 119.982 40.4602 120.412 40.7443C120.843 41.0237 121.189 41.4048 121.449 41.8878C121.715 42.3707 121.847 42.9744 121.847 43.6989V51H119.376V49.5014H119.29C119.134 49.8045 118.914 50.0885 118.63 50.3537C118.35 50.6141 117.998 50.8248 117.572 50.9858C117.15 51.142 116.655 51.2202 116.087 51.2202ZM116.755 49.331C117.271 49.331 117.718 49.2292 118.097 49.0256C118.476 48.8172 118.767 48.5426 118.971 48.2017C119.179 47.8608 119.283 47.4891 119.283 47.0866V45.8011C119.203 45.8674 119.065 45.929 118.871 45.9858C118.682 46.0426 118.469 46.0923 118.232 46.1349C117.995 46.1776 117.761 46.2154 117.529 46.2486C117.297 46.2817 117.096 46.3101 116.925 46.3338C116.542 46.3859 116.198 46.4711 115.895 46.5895C115.592 46.7079 115.353 46.8736 115.178 47.0866C115.003 47.295 114.915 47.5649 114.915 47.8963C114.915 48.3698 115.088 48.7273 115.434 48.9688C115.779 49.2102 116.22 49.331 116.755 49.331ZM129.191 51.2131C128.102 51.2131 127.167 50.974 126.385 50.4957C125.609 50.0175 125.01 49.357 124.589 48.5142C124.172 47.6667 123.964 46.6913 123.964 45.5881C123.964 44.4801 124.177 43.5024 124.603 42.6548C125.029 41.8026 125.63 41.1397 126.407 40.6662C127.188 40.188 128.111 39.9489 129.177 39.9489C130.062 39.9489 130.846 40.1122 131.528 40.4389C132.214 40.7609 132.761 41.2178 133.168 41.8097C133.575 42.3968 133.807 43.0833 133.864 43.8693H131.407C131.307 43.3437 131.071 42.9058 130.697 42.5554C130.327 42.2003 129.832 42.0227 129.212 42.0227C128.687 42.0227 128.225 42.1648 127.827 42.4489C127.43 42.7282 127.119 43.1307 126.897 43.6562C126.679 44.1818 126.57 44.8116 126.57 45.5455C126.57 46.2888 126.679 46.928 126.897 47.4631C127.115 47.9934 127.42 48.4029 127.813 48.6918C128.211 48.9759 128.677 49.1179 129.212 49.1179C129.591 49.1179 129.93 49.0469 130.228 48.9048C130.531 48.758 130.784 48.5473 130.988 48.2727C131.191 47.9981 131.331 47.6643 131.407 47.2713H133.864C133.803 48.0431 133.575 48.7273 133.182 49.3239C132.789 49.9157 132.254 50.3797 131.577 50.7159C130.9 51.0473 130.105 51.2131 129.191 51.2131ZM135.183 42.2003V40.0909H144.729V42.2003H141.199V51H138.713V42.2003H135.183ZM148.516 43.642H151.733C153.126 43.642 154.203 43.9806 154.965 44.6577C155.727 45.3348 156.111 46.2225 156.116 47.321C156.111 48.036 155.936 48.6705 155.59 49.2244C155.249 49.7784 154.752 50.214 154.099 50.5312C153.45 50.8438 152.662 51 151.733 51H146.776V40.0909H149.255V48.8906H151.733C152.292 48.8906 152.751 48.7486 153.111 48.4645C153.471 48.1757 153.651 47.8063 153.651 47.3565C153.651 46.883 153.471 46.4972 153.111 46.1989C152.751 45.9006 152.292 45.7514 151.733 45.7514H148.516V43.642ZM164.079 44.5582V46.6747H158.205V44.5582H164.079ZM160.244 40.0909V51H157.666V40.0909H160.244ZM167.374 51.2131C166.323 51.2131 165.412 50.974 164.64 50.4957C163.873 50.0175 163.279 49.3546 162.857 48.5071C162.436 47.6596 162.225 46.6795 162.225 45.5668C162.225 44.4541 162.436 43.4763 162.857 42.6335C163.279 41.7907 163.873 41.1326 164.64 40.6591C165.412 40.1856 166.323 39.9489 167.374 39.9489C168.421 39.9489 169.328 40.1856 170.095 40.6591C170.866 41.1326 171.463 41.7907 171.884 42.6335C172.311 43.4763 172.524 44.4541 172.524 45.5668C172.524 46.6795 172.311 47.6596 171.884 48.5071C171.463 49.3546 170.866 50.0175 170.095 50.4957C169.328 50.974 168.421 51.2131 167.374 51.2131ZM167.374 49.0824C167.995 49.0824 168.501 48.9261 168.894 48.6136C169.287 48.3011 169.576 47.8797 169.761 47.3494C169.945 46.8191 170.038 46.2249 170.038 45.5668C170.038 44.9086 169.945 44.3144 169.761 43.7841C169.576 43.2538 169.287 42.8348 168.894 42.527C168.501 42.2145 167.995 42.0582 167.374 42.0582C166.749 42.0582 166.238 42.2145 165.84 42.527C165.447 42.8348 165.159 43.2538 164.974 43.7841C164.789 44.3144 164.697 44.9086 164.697 45.5668C164.697 46.2296 164.789 46.8262 164.974 47.3565C165.159 47.8868 165.447 48.3082 165.84 48.6207C166.238 48.9285 166.749 49.0824 167.374 49.0824ZM184.523 51.2131C183.434 51.2131 182.499 50.974 181.718 50.4957C180.941 50.0175 180.342 49.357 179.921 48.5142C179.504 47.6667 179.296 46.6913 179.296 45.5881C179.296 44.4801 179.509 43.5024 179.935 42.6548C180.361 41.8026 180.962 41.1397 181.739 40.6662C182.52 40.188 183.443 39.9489 184.509 39.9489C185.394 39.9489 186.178 40.1122 186.86 40.4389C187.546 40.7609 188.093 41.2178 188.5 41.8097C188.907 42.3968 189.139 43.0833 189.196 43.8693H186.739C186.639 43.3437 186.403 42.9058 186.029 42.5554C185.659 42.2003 185.164 42.0227 184.544 42.0227C184.019 42.0227 183.557 42.1648 183.159 42.4489C182.762 42.7282 182.451 43.1307 182.229 43.6562C182.011 44.1818 181.902 44.8116 181.902 45.5455C181.902 46.2888 182.011 46.928 182.229 47.4631C182.447 47.9934 182.752 48.4029 183.145 48.6918C183.543 48.9759 184.009 49.1179 184.544 49.1179C184.923 49.1179 185.262 49.0469 185.56 48.9048C185.863 48.758 186.116 48.5473 186.32 48.2727C186.523 47.9981 186.663 47.6643 186.739 47.2713H189.196C189.135 48.0431 188.907 48.7273 188.514 49.3239C188.121 49.9157 187.586 50.3797 186.909 50.7159C186.232 51.0473 185.437 51.2131 184.523 51.2131ZM196.066 51.2131C195.001 51.2131 194.077 50.9787 193.296 50.5099C192.515 50.0412 191.909 49.3854 191.478 48.5426C191.052 47.6998 190.839 46.715 190.839 45.5881C190.839 44.4612 191.052 43.474 191.478 42.6264C191.909 41.7789 192.515 41.1207 193.296 40.652C194.077 40.1832 195.001 39.9489 196.066 39.9489C197.131 39.9489 198.055 40.1832 198.836 40.652C199.617 41.1207 200.221 41.7789 200.647 42.6264C201.078 43.474 201.293 44.4612 201.293 45.5881C201.293 46.715 201.078 47.6998 200.647 48.5426C200.221 49.3854 199.617 50.0412 198.836 50.5099C198.055 50.9787 197.131 51.2131 196.066 51.2131ZM196.08 49.1534C196.658 49.1534 197.141 48.9948 197.529 48.6776C197.917 48.3556 198.206 47.9247 198.395 47.3849C198.59 46.8452 198.687 46.2438 198.687 45.581C198.687 44.9134 198.59 44.3097 198.395 43.7699C198.206 43.2254 197.917 42.7921 197.529 42.4702C197.141 42.1482 196.658 41.9872 196.08 41.9872C195.488 41.9872 194.996 42.1482 194.603 42.4702C194.215 42.7921 193.923 43.2254 193.729 43.7699C193.54 44.3097 193.445 44.9134 193.445 45.581C193.445 46.2438 193.54 46.8452 193.729 47.3849C193.923 47.9247 194.215 48.3556 194.603 48.6776C194.996 48.9948 195.488 49.1534 196.08 49.1534ZM208.234 51.2131C207.169 51.2131 206.245 50.9787 205.464 50.5099C204.683 50.0412 204.077 49.3854 203.646 48.5426C203.22 47.6998 203.007 46.715 203.007 45.5881C203.007 44.4612 203.22 43.474 203.646 42.6264C204.077 41.7789 204.683 41.1207 205.464 40.652C206.245 40.1832 207.169 39.9489 208.234 39.9489C209.299 39.9489 210.222 40.1832 211.004 40.652C211.785 41.1207 212.389 41.7789 212.815 42.6264C213.246 43.474 213.461 44.4612 213.461 45.5881C213.461 46.715 213.246 47.6998 212.815 48.5426C212.389 49.3854 211.785 50.0412 211.004 50.5099C210.222 50.9787 209.299 51.2131 208.234 51.2131ZM208.248 49.1534C208.826 49.1534 209.309 48.9948 209.697 48.6776C210.085 48.3556 210.374 47.9247 210.563 47.3849C210.758 46.8452 210.855 46.2438 210.855 45.581C210.855 44.9134 210.758 44.3097 210.563 43.7699C210.374 43.2254 210.085 42.7921 209.697 42.4702C209.309 42.1482 208.826 41.9872 208.248 41.9872C207.656 41.9872 207.164 42.1482 206.771 42.4702C206.383 42.7921 206.091 43.2254 205.897 43.7699C205.708 44.3097 205.613 44.9134 205.613 45.581C205.613 46.2438 205.708 46.8452 205.897 47.3849C206.091 47.9247 206.383 48.3556 206.771 48.6776C207.164 48.9948 207.656 49.1534 208.248 49.1534ZM224.386 36.0568L225.281 37.7188C224.964 37.9934 224.609 38.1922 224.216 38.3153C223.823 38.4384 223.361 38.5189 222.831 38.5568C222.305 38.59 221.68 38.6136 220.956 38.6278C220.141 38.6468 219.476 38.8007 218.96 39.0895C218.444 39.3783 218.049 39.8163 217.774 40.4034C217.499 40.9858 217.319 41.7292 217.234 42.6335H217.355C217.696 41.9659 218.174 41.4569 218.79 41.1065C219.405 40.7562 220.127 40.581 220.956 40.581C221.86 40.581 222.658 40.7846 223.349 41.1918C224.045 41.5942 224.587 42.179 224.976 42.946C225.369 43.7131 225.565 44.6411 225.565 45.7301C225.565 46.8523 225.354 47.8253 224.933 48.6491C224.512 49.4683 223.913 50.1004 223.136 50.5455C222.364 50.9905 221.448 51.2131 220.388 51.2131C219.332 51.2131 218.413 50.9834 217.632 50.5241C216.855 50.0601 216.254 49.3759 215.828 48.4716C215.407 47.5625 215.196 46.4427 215.196 45.1122V44.1321C215.196 41.5658 215.674 39.6506 216.631 38.3864C217.587 37.1222 219.005 36.4782 220.885 36.4545C221.443 36.4451 221.943 36.4427 222.383 36.4474C222.828 36.4522 223.217 36.4309 223.548 36.3835C223.88 36.3362 224.159 36.2273 224.386 36.0568ZM220.402 49.1534C220.927 49.1534 221.382 49.0185 221.765 48.7486C222.149 48.474 222.443 48.0857 222.646 47.5838C222.854 47.0819 222.959 46.4877 222.959 45.8011C222.959 45.1241 222.854 44.5488 222.646 44.0753C222.438 43.5971 222.142 43.2325 221.758 42.9815C221.375 42.7306 220.918 42.6051 220.388 42.6051C219.99 42.6051 219.632 42.6761 219.315 42.8182C218.998 42.9602 218.728 43.1686 218.506 43.4432C218.283 43.7178 218.113 44.0516 217.994 44.4446C217.876 44.8376 217.812 45.2898 217.802 45.8011C217.802 46.8286 218.034 47.6454 218.498 48.2514C218.962 48.8527 219.597 49.1534 220.402 49.1534ZM244.138 48.8906L243.925 54.125H241.503V51H240.217V48.8906H244.138ZM227.753 40.0909H230.231V48.8835H233.662V40.0909H236.14V48.8835H239.571V40.0909H242.05V51H227.753V40.0909ZM250.883 51.2131C249.789 51.2131 248.845 50.9858 248.049 50.5312C247.258 50.072 246.65 49.4233 246.224 48.5852C245.798 47.7424 245.585 46.7505 245.585 45.6094C245.585 44.4872 245.798 43.5024 246.224 42.6548C246.655 41.8026 247.256 41.1397 248.028 40.6662C248.8 40.188 249.706 39.9489 250.748 39.9489C251.42 39.9489 252.055 40.0578 252.651 40.2756C253.253 40.4886 253.783 40.8201 254.242 41.2699C254.706 41.7197 255.071 42.2926 255.336 42.9886C255.601 43.6799 255.734 44.5038 255.734 45.4602V46.2486H246.792V44.5156H253.269C253.265 44.0232 253.158 43.5852 252.95 43.2017C252.741 42.8134 252.45 42.508 252.076 42.2855C251.707 42.063 251.276 41.9517 250.784 41.9517C250.258 41.9517 249.796 42.0795 249.399 42.3352C249.001 42.5862 248.691 42.9176 248.468 43.3295C248.25 43.7367 248.139 44.1842 248.134 44.6719V46.1847C248.134 46.8191 248.25 47.3636 248.482 47.8182C248.714 48.268 249.039 48.6136 249.455 48.8551C249.872 49.0919 250.36 49.2102 250.919 49.2102C251.293 49.2102 251.631 49.1581 251.934 49.054C252.237 48.9451 252.5 48.7865 252.722 48.5781C252.945 48.3698 253.113 48.1117 253.227 47.804L255.627 48.0739C255.476 48.7083 255.187 49.2623 254.761 49.7358C254.339 50.2045 253.8 50.5691 253.142 50.8295C252.483 51.0852 251.731 51.2131 250.883 51.2131ZM262.667 51.2131C261.578 51.2131 260.643 50.974 259.862 50.4957C259.086 50.0175 258.487 49.357 258.065 48.5142C257.648 47.6667 257.44 46.6913 257.44 45.5881C257.44 44.4801 257.653 43.5024 258.079 42.6548C258.506 41.8026 259.107 41.1397 259.883 40.6662C260.665 40.188 261.588 39.9489 262.653 39.9489C263.539 39.9489 264.322 40.1122 265.004 40.4389C265.691 40.7609 266.238 41.2178 266.645 41.8097C267.052 42.3968 267.284 43.0833 267.341 43.8693H264.883C264.784 43.3437 264.547 42.9058 264.173 42.5554C263.804 42.2003 263.309 42.0227 262.689 42.0227C262.163 42.0227 261.702 42.1648 261.304 42.4489C260.906 42.7282 260.596 43.1307 260.373 43.6562C260.156 44.1818 260.047 44.8116 260.047 45.5455C260.047 46.2888 260.156 46.928 260.373 47.4631C260.591 47.9934 260.897 48.4029 261.29 48.6918C261.687 48.9759 262.154 49.1179 262.689 49.1179C263.068 49.1179 263.406 49.0469 263.704 48.9048C264.007 48.758 264.261 48.5473 264.464 48.2727C264.668 47.9981 264.808 47.6643 264.883 47.2713H267.341C267.279 48.0431 267.052 48.7273 266.659 49.3239C266.266 49.9157 265.731 50.3797 265.054 50.7159C264.377 51.0473 263.581 51.2131 262.667 51.2131ZM268.66 42.2003V40.0909H278.205V42.2003H274.676V51H272.19V42.2003H268.66ZM280.253 51V40.0909H284.834C286.126 40.0909 287.147 40.349 287.895 40.8651C288.648 41.3812 289.024 42.1009 289.024 43.0241C289.024 43.6349 288.811 44.1345 288.385 44.5227C287.963 44.9062 287.388 45.1643 286.659 45.2969C287.232 45.3442 287.734 45.4886 288.165 45.7301C288.6 45.9716 288.941 46.2888 289.187 46.6818C289.434 47.0748 289.557 47.527 289.557 48.0384C289.557 48.6397 289.398 49.1629 289.081 49.608C288.768 50.0483 288.311 50.3916 287.71 50.6378C287.113 50.8793 286.389 51 285.537 51H280.253ZM282.66 48.9759H285.537C286.01 48.9759 286.382 48.8646 286.652 48.642C286.922 48.4148 287.057 48.107 287.057 47.7188C287.057 47.2689 286.922 46.9162 286.652 46.6605C286.382 46.4001 286.01 46.2699 285.537 46.2699H282.66V48.9759ZM282.66 44.608H284.883C285.234 44.608 285.534 44.5582 285.785 44.4588C286.036 44.3546 286.228 44.2102 286.361 44.0256C286.493 43.8362 286.559 43.6113 286.559 43.3509C286.559 42.9768 286.406 42.6832 286.098 42.4702C285.795 42.2571 285.373 42.1506 284.834 42.1506H282.66V44.608ZM294.818 51.2202C294.126 51.2202 293.504 51.0971 292.95 50.8509C292.401 50.5999 291.965 50.2306 291.643 49.7429C291.326 49.2552 291.167 48.6539 291.167 47.9389C291.167 47.3234 291.281 46.8144 291.508 46.4119C291.735 46.0095 292.045 45.6875 292.438 45.446C292.831 45.2045 293.274 45.0223 293.767 44.8991C294.264 44.7713 294.777 44.679 295.308 44.6222C295.947 44.5559 296.465 44.4967 296.863 44.4446C297.261 44.3878 297.55 44.3026 297.73 44.1889C297.914 44.0705 298.007 43.8883 298.007 43.642V43.5994C298.007 43.0644 297.848 42.6501 297.531 42.3565C297.213 42.063 296.757 41.9162 296.16 41.9162C295.53 41.9162 295.031 42.0535 294.661 42.3281C294.297 42.6027 294.051 42.9271 293.923 43.3011L291.522 42.9602C291.712 42.2973 292.024 41.7434 292.46 41.2983C292.895 40.8485 293.428 40.5123 294.058 40.2898C294.687 40.0625 295.383 39.9489 296.146 39.9489C296.671 39.9489 297.195 40.0104 297.715 40.1335C298.236 40.2566 298.712 40.4602 299.143 40.7443C299.574 41.0237 299.919 41.4048 300.18 41.8878C300.445 42.3707 300.578 42.9744 300.578 43.6989V51H298.106V49.5014H298.021C297.865 49.8045 297.644 50.0885 297.36 50.3537C297.081 50.6141 296.728 50.8248 296.302 50.9858C295.881 51.142 295.386 51.2202 294.818 51.2202ZM295.485 49.331C296.001 49.331 296.449 49.2292 296.828 49.0256C297.206 48.8172 297.498 48.5426 297.701 48.2017C297.91 47.8608 298.014 47.4891 298.014 47.0866V45.8011C297.933 45.8674 297.796 45.929 297.602 45.9858C297.412 46.0426 297.199 46.0923 296.963 46.1349C296.726 46.1776 296.491 46.2154 296.259 46.2486C296.027 46.2817 295.826 46.3101 295.656 46.3338C295.272 46.3859 294.929 46.4711 294.626 46.5895C294.323 46.7079 294.084 46.8736 293.909 47.0866C293.733 47.295 293.646 47.5649 293.646 47.8963C293.646 48.3698 293.819 48.7273 294.164 48.9688C294.51 49.2102 294.95 49.331 295.485 49.331Z" fill="white"/>
<rect x="1" y="1" width="336" height="86" rx="9" stroke="url(#paint0_linear_632_178)" stroke-width="2"/>
<defs>
<linearGradient id="paint0_linear_632_178" x1="0" y1="44" x2="338" y2="44" gradientUnits="userSpaceOnUse">
<stop stop-color="#7000FF"/>
<stop offset="1" stop-color="#872626"/>
</linearGradient>
</defs>
</svg>
