<svg width="1246" height="26" viewBox="0 0 1246 26" fill="none" xmlns="http://www.w3.org/2000/svg">
<g opacity="0.45">
<path d="M1243 13H1203M1203 13L1213 3M1203 13L1213 23" stroke="#34C44B" stroke-width="5" stroke-linecap="round" stroke-linejoin="round"/>
<path d="M1183 13H1143M1143 13L1153 3M1143 13L1153 23" stroke="#34C44B" stroke-width="5" stroke-linecap="round" stroke-linejoin="round"/>
<path d="M1123 13H1083M1083 13L1093 3M1083 13L1093 23" stroke="#34C44B" stroke-width="5" stroke-linecap="round" stroke-linejoin="round"/>
<path d="M1063 13H1023M1023 13L1033 3M1023 13L1033 23" stroke="#34C44B" stroke-width="5" stroke-linecap="round" stroke-linejoin="round"/>
<path d="M763 13H723M723 13L733 3M723 13L733 23" stroke="#34C44B" stroke-width="5" stroke-linecap="round" stroke-linejoin="round"/>
<path d="M703 13H663M663 13L673 3M663 13L673 23" stroke="#34C44B" stroke-width="5" stroke-linecap="round" stroke-linejoin="round"/>
<path d="M643 13H603M603 13L613 3M603 13L613 23" stroke="#34C44B" stroke-width="5" stroke-linecap="round" stroke-linejoin="round"/>
<path d="M583 13H543M543 13L553 3M543 13L553 23" stroke="#34C44B" stroke-width="5" stroke-linecap="round" stroke-linejoin="round"/>
<path d="M523 13H483M483 13L493 3M483 13L493 23" stroke="#34C44B" stroke-width="5" stroke-linecap="round" stroke-linejoin="round"/>
<path d="M463 13H423M423 13L433 3M423 13L433 23" stroke="#34C44B" stroke-width="5" stroke-linecap="round" stroke-linejoin="round"/>
<path d="M403 13H363M363 13L373 3M363 13L373 23" stroke="#34C44B" stroke-width="5" stroke-linecap="round" stroke-linejoin="round"/>
<path d="M343 13H303M303 13L313 3M303 13L313 23" stroke="#34C44B" stroke-width="5" stroke-linecap="round" stroke-linejoin="round"/>
<path d="M283 13H243M243 13L253 3M243 13L253 23" stroke="#34C44B" stroke-width="5" stroke-linecap="round" stroke-linejoin="round"/>
<path d="M223 13H183M183 13L193 3M183 13L193 23" stroke="#34C44B" stroke-width="5" stroke-linecap="round" stroke-linejoin="round"/>
<path d="M163 13H123M123 13L133 3M123 13L133 23" stroke="#34C44B" stroke-width="5" stroke-linecap="round" stroke-linejoin="round"/>
<path d="M103 13H63M63 13L73 3M63 13L73 23" stroke="#34C44B" stroke-width="5" stroke-linecap="round" stroke-linejoin="round"/>
<path d="M1003 13H963M963 13L973 3M963 13L973 23" stroke="#34C44B" stroke-width="5" stroke-linecap="round" stroke-linejoin="round"/>
<path d="M943 13H903M903 13L913 3M903 13L913 23" stroke="#34C44B" stroke-width="5" stroke-linecap="round" stroke-linejoin="round"/>
<path d="M883 13H843M843 13L853 3M843 13L853 23" stroke="#34C44B" stroke-width="5" stroke-linecap="round" stroke-linejoin="round"/>
<path d="M823 13H783M783 13L793 3M783 13L793 23" stroke="#34C44B" stroke-width="5" stroke-linecap="round" stroke-linejoin="round"/>
<path d="M43 13H3M3 13L13 3M3 13L13 23" stroke="#34C44B" stroke-width="5" stroke-linecap="round" stroke-linejoin="round"/>
</g>
</svg>
