<svg width="1559" height="522" viewBox="0 0 1559 522" fill="none" xmlns="http://www.w3.org/2000/svg">
<path d="M1075.86 283.202C1083.43 285.362 1082.22 296.448 1074.36 296.921L158.12 352.076C155.507 352.233 153.024 350.919 151.685 348.67L34.5526 151.97C33.1638 149.638 33.2485 146.713 34.7699 144.465L121.631 16.1253C123.326 13.6204 126.438 12.4877 129.347 13.3171L1075.86 283.202Z" fill="url(#paint0_linear_624_96)"/>
<path d="M1342.29 291.461L1557.83 215.456L1505.47 312.993C1499.81 323.54 1487.68 328.859 1476.08 325.877L1342.29 291.461Z" fill="url(#paint1_linear_624_96)"/>
<path d="M1418.83 326.491C1413.47 336.013 1402.94 342.456 1390.79 342.456H1001.95C984.193 342.456 969.826 328.744 969.826 311.828V303.195H987.967C990.026 303.237 992.018 302.464 993.509 301.043C995 299.622 995.87 297.669 995.928 295.609V259.998C1018.12 245.707 1043.95 238.105 1070.33 238.098H1069.54L1096.82 237.971C1123.39 180.842 1174.87 133.456 1242.61 133.456C1310.26 133.456 1367 177.953 1382.45 237.94H1390.79C1408.36 237.94 1418.6 251.524 1418.6 268.282" fill="#34C44B"/>
<path d="M1418.83 311.45H1411.92C1409.34 311.51 1406.78 311.062 1404.37 310.134C1401.96 309.205 1399.76 307.813 1397.9 306.038C1396.03 304.262 1394.53 302.138 1393.49 299.787C1392.45 297.435 1391.88 294.902 1391.83 292.333V283.541C1391.83 272.991 1400.81 264.456 1411.92 264.456H1418.63" fill="#DD1111"/>
<path d="M1371.83 326.456C1371.83 339.186 1366.51 351.395 1357.03 360.397C1347.56 369.398 1334.72 374.456 1321.33 374.456C1307.93 374.456 1295.09 369.398 1285.62 360.397C1276.15 351.395 1270.83 339.186 1270.83 326.456C1270.83 313.725 1276.15 301.516 1285.62 292.514C1295.09 283.513 1307.93 278.456 1321.33 278.456C1334.72 278.456 1347.56 283.513 1357.03 292.514C1366.51 301.516 1371.83 313.725 1371.83 326.456Z" fill="#1F792E"/>
<path d="M1342.83 326.456C1342.83 331.76 1340.56 336.847 1336.53 340.598C1332.5 344.348 1327.03 346.456 1321.33 346.456C1315.62 346.456 1310.15 344.348 1306.12 340.598C1302.09 336.847 1299.83 331.76 1299.83 326.456C1299.83 321.151 1302.09 316.064 1306.12 312.313C1310.15 308.563 1315.62 306.456 1321.33 306.456C1327.03 306.456 1332.5 308.563 1336.53 312.313C1340.56 316.064 1342.83 321.151 1342.83 326.456Z" fill="#084011"/>
<path d="M1127.83 326.456C1127.83 339.186 1122.51 351.395 1113.03 360.397C1103.56 369.398 1090.72 374.456 1077.33 374.456C1063.93 374.456 1051.09 369.398 1041.62 360.397C1032.15 351.395 1026.83 339.186 1026.83 326.456C1026.83 313.725 1032.15 301.516 1041.62 292.514C1051.09 283.513 1063.93 278.456 1077.33 278.456C1090.72 278.456 1103.56 283.513 1113.03 292.514C1122.51 301.516 1127.83 313.725 1127.83 326.456Z" fill="#1F792E"/>
<path d="M1098.83 326.456C1098.83 331.76 1096.56 336.847 1092.53 340.598C1088.5 344.348 1083.03 346.456 1077.33 346.456C1071.62 346.456 1066.15 344.348 1062.12 340.598C1058.09 336.847 1055.83 331.76 1055.83 326.456C1055.83 321.151 1058.09 316.064 1062.12 312.313C1066.15 308.563 1071.62 306.456 1077.33 306.456C1083.03 306.456 1088.5 308.563 1092.53 312.313C1096.56 316.064 1098.83 321.151 1098.83 326.456Z" fill="#084011"/>
<path d="M972.037 280.297V280.202C979.135 272.678 987.124 266.047 995.826 260.456V295.904C995.826 300.075 992.256 303.456 987.896 303.456H969.826V282.572L972.037 280.297Z" fill="#F5BB1D"/>
<path d="M1249.74 153.456C1301.59 156.571 1344.3 191.223 1356.83 237.456H1249.74V153.456ZM1229.91 237.456H1122.83C1143.2 194.747 1180.72 158.963 1229.91 153.833V237.456Z" fill="#1F792E"/>
<path opacity="0.33" d="M1031.28 262.767C1031.17 261.678 1030.71 260.833 1029.89 260.23C1029.07 259.627 1027.96 259.326 1026.56 259.326C1025.6 259.326 1024.8 259.461 1024.14 259.731C1023.48 259.992 1022.98 260.356 1022.63 260.824C1022.29 261.291 1022.12 261.822 1022.12 262.416C1022.1 262.911 1022.2 263.343 1022.43 263.711C1022.66 264.08 1022.98 264.4 1023.39 264.67C1023.79 264.93 1024.26 265.16 1024.79 265.358C1025.32 265.547 1025.89 265.709 1026.49 265.844L1028.97 266.437C1030.18 266.707 1031.28 267.067 1032.29 267.517C1033.3 267.967 1034.17 268.52 1034.91 269.177C1035.65 269.833 1036.22 270.607 1036.62 271.498C1037.04 272.388 1037.25 273.409 1037.26 274.561C1037.25 276.252 1036.82 277.719 1035.96 278.96C1035.12 280.193 1033.89 281.151 1032.29 281.834C1030.7 282.509 1028.78 282.846 1026.53 282.846C1024.3 282.846 1022.36 282.505 1020.7 281.821C1019.05 281.137 1017.77 280.125 1016.84 278.785C1015.92 277.435 1015.44 275.766 1015.4 273.778H1021.05C1021.11 274.705 1021.38 275.479 1021.85 276.099C1022.32 276.711 1022.96 277.174 1023.75 277.489C1024.55 277.795 1025.45 277.948 1026.46 277.948C1027.45 277.948 1028.31 277.804 1029.04 277.516C1029.78 277.228 1030.35 276.828 1030.75 276.315C1031.16 275.802 1031.36 275.213 1031.36 274.547C1031.36 273.927 1031.18 273.405 1030.81 272.982C1030.45 272.559 1029.92 272.199 1029.21 271.903C1028.52 271.606 1027.67 271.336 1026.66 271.093L1023.66 270.337C1021.33 269.77 1019.49 268.884 1018.14 267.679C1016.79 266.473 1016.12 264.849 1016.13 262.807C1016.12 261.134 1016.56 259.672 1017.46 258.422C1018.37 257.171 1019.62 256.195 1021.2 255.493C1022.78 254.792 1024.58 254.441 1026.6 254.441C1028.65 254.441 1030.44 254.792 1031.97 255.493C1033.51 256.195 1034.7 257.171 1035.56 258.422C1036.41 259.672 1036.85 261.121 1036.88 262.767H1031.28ZM1190.7 254.819H1197.91L1205.52 273.387H1205.84L1213.45 254.819H1220.66V282.455H1214.99V264.467H1214.76L1207.61 282.32H1203.75L1196.6 264.4H1196.37V282.455H1190.7V254.819ZM1357.4 254.819H1364.6L1372.21 273.387H1372.54L1380.15 254.819H1387.35V282.455H1381.69V264.467H1381.46L1374.3 282.32H1370.45L1363.29 264.4H1363.06V282.455H1357.4V254.819Z" fill="#084011"/>
<defs>
<linearGradient id="paint0_linear_624_96" x1="192.074" y1="214.197" x2="1006.39" y2="261.5" gradientUnits="userSpaceOnUse">
<stop stop-color="#FEF539" stop-opacity="0"/>
<stop offset="0.501" stop-color="#EFE728" stop-opacity="0.3"/>
<stop offset="1" stop-color="#F5EC1D"/>
</linearGradient>
<linearGradient id="paint1_linear_624_96" x1="1345.81" y1="290.242" x2="1490.31" y2="316.242" gradientUnits="userSpaceOnUse">
<stop stop-color="#D0000C"/>
<stop offset="0.541" stop-color="#D0000C" stop-opacity="0.67"/>
<stop offset="1" stop-color="#D0000C" stop-opacity="0"/>
</linearGradient>
</defs>
</svg>
