<svg width="74" height="74" viewBox="0 0 74 74" fill="none" xmlns="http://www.w3.org/2000/svg">
<path fill-rule="evenodd" clip-rule="evenodd" d="M0 23.2326C0 10.4016 10.4016 0 23.2326 0H50.7674C63.5984 0 74 10.4016 74 23.2326V50.7674C74 63.5984 63.5984 74 50.7674 74H23.2326C10.4016 74 0 63.5984 0 50.7674V23.2326ZM23.2326 5.16279C13.2529 5.16279 5.16279 13.2529 5.16279 23.2326V50.7674C5.16279 60.7471 13.2529 68.8372 23.2326 68.8372H50.7674C60.7471 68.8372 68.8372 60.7471 68.8372 50.7674V23.2326C68.8372 13.2529 60.7471 5.16279 50.7674 5.16279H23.2326Z" fill="#548F64"/>
<path d="M53.3488 37.0414L55.6487 34.7415C58.934 31.4561 60.5767 29.8134 60.5767 27.7722C60.5767 25.731 58.934 24.0884 55.6487 20.8031L52.1641 17.3185C48.879 14.0333 47.2364 12.3906 45.195 12.3906C43.1538 12.3906 41.5111 14.0333 38.2258 17.3185L17.3185 38.2258C14.0333 41.5111 12.3906 43.1538 12.3906 45.195C12.3906 47.2364 14.0333 48.879 17.3185 52.1641L20.8031 55.6487C24.0884 58.934 25.731 60.5767 27.7722 60.5767C29.8134 60.5767 31.4561 58.934 34.7415 55.6487L46.6786 43.7116" stroke="#548F64" stroke-width="3.75" stroke-linecap="round"/>
<path d="M27.9648 27.9648L31.3721 31.3721" stroke="#548F64" stroke-width="3.75" stroke-linecap="round"/>
<path d="M38.187 17.7437L41.5942 21.1509" stroke="#548F64" stroke-width="3.75" stroke-linecap="round"/>
<path d="M17.7437 38.188L21.1509 41.5952" stroke="#548F64" stroke-width="3.75" stroke-linecap="round"/>
<path d="M22.8545 33.0767L27.9654 38.1875" stroke="#548F64" stroke-width="3.75" stroke-linecap="round"/>
<path d="M33.0762 22.8545L38.187 27.9654" stroke="#548F64" stroke-width="3.75" stroke-linecap="round"/>
</svg>
