<svg width="74" height="74" viewBox="0 0 74 74" fill="none" xmlns="http://www.w3.org/2000/svg">
<path fill-rule="evenodd" clip-rule="evenodd" d="M0 23.2326C0 10.4016 10.4016 0 23.2326 0H50.7674C63.5984 0 74 10.4016 74 23.2326V50.7674C74 63.5984 63.5984 74 50.7674 74H23.2326C10.4016 74 0 63.5984 0 50.7674V23.2326ZM23.2326 5.16279C13.2529 5.16279 5.16279 13.2529 5.16279 23.2326V50.7674C5.16279 60.7471 13.2529 68.8372 23.2326 68.8372H50.7674C60.7471 68.8372 68.8372 60.7471 68.8372 50.7674V23.2326C68.8372 13.2529 60.7471 5.16279 50.7674 5.16279H23.2326Z" fill="#548F64"/>
<path d="M48.6667 13H54.5C56.4329 13 58 14.5782 58 16.525V21.225C58 23.1718 56.4329 24.75 54.5 24.75H48.6667M48.6667 13H39.3333C26.4467 13 16 23.5213 16 36.5C16 49.4786 26.4467 60 39.3333 60H48.6667M48.6667 13V24.75M48.6667 24.75H39.3333C32.8901 24.75 27.6667 30.0107 27.6667 36.5C27.6667 42.9893 32.8901 48.25 39.3333 48.25H48.6667M48.6667 60H54.5C56.4329 60 58 58.4217 58 56.475V51.775C58 49.8283 56.4329 48.25 54.5 48.25H48.6667M48.6667 60V48.25" stroke="#548F64" stroke-width="3.75" stroke-linecap="round" stroke-linejoin="round"/>
</svg>
