<svg width="74" height="74" viewBox="0 0 74 74" fill="none" xmlns="http://www.w3.org/2000/svg">
<path fill-rule="evenodd" clip-rule="evenodd" d="M0 23.2326C0 10.4016 10.4016 0 23.2326 0H50.7674C63.5984 0 74 10.4016 74 23.2326V50.7674C74 63.5984 63.5984 74 50.7674 74H23.2326C10.4016 74 0 63.5984 0 50.7674V23.2326ZM23.2326 5.16279C13.2529 5.16279 5.16279 13.2529 5.16279 23.2326V50.7674C5.16279 60.7471 13.2529 68.8372 23.2326 68.8372H50.7674C60.7471 68.8372 68.8372 60.7471 68.8372 50.7674V23.2326C68.8372 13.2529 60.7471 5.16279 50.7674 5.16279H23.2326Z" fill="#548F64"/>
<line x1="21" y1="60" x2="21" y2="14" stroke="#548F64" stroke-width="4"/>
<circle cx="21" cy="49" r="6" fill="#548F64"/>
<line x1="37" y1="60" x2="37" y2="14" stroke="#548F64" stroke-width="4"/>
<circle cx="37" cy="39" r="6" fill="#548F64"/>
<line x1="53" y1="60" x2="53" y2="14" stroke="#548F64" stroke-width="4"/>
<circle cx="53" cy="46" r="6" fill="#548F64"/>
</svg>
