<svg width="1246" height="26" viewBox="0 0 1246 26" fill="none" xmlns="http://www.w3.org/2000/svg">
<g opacity="0.45">
<path d="M3 13H43M43 13L33 3M43 13L33 23" stroke="#34C44B" stroke-width="5" stroke-linecap="round" stroke-linejoin="round"/>
<path d="M63 13H103M103 13L93 3M103 13L93 23" stroke="#34C44B" stroke-width="5" stroke-linecap="round" stroke-linejoin="round"/>
<path d="M123 13H163M163 13L153 3M163 13L153 23" stroke="#34C44B" stroke-width="5" stroke-linecap="round" stroke-linejoin="round"/>
<path d="M183 13H223M223 13L213 3M223 13L213 23" stroke="#34C44B" stroke-width="5" stroke-linecap="round" stroke-linejoin="round"/>
<path d="M483 13H523M523 13L513 3M523 13L513 23" stroke="#34C44B" stroke-width="5" stroke-linecap="round" stroke-linejoin="round"/>
<path d="M543 13H583M583 13L573 3M583 13L573 23" stroke="#34C44B" stroke-width="5" stroke-linecap="round" stroke-linejoin="round"/>
<path d="M603 13H643M643 13L633 3M643 13L633 23" stroke="#34C44B" stroke-width="5" stroke-linecap="round" stroke-linejoin="round"/>
<path d="M663 13H703M703 13L693 3M703 13L693 23" stroke="#34C44B" stroke-width="5" stroke-linecap="round" stroke-linejoin="round"/>
<path d="M723 13H763M763 13L753 3M763 13L753 23" stroke="#34C44B" stroke-width="5" stroke-linecap="round" stroke-linejoin="round"/>
<path d="M783 13H823M823 13L813 3M823 13L813 23" stroke="#34C44B" stroke-width="5" stroke-linecap="round" stroke-linejoin="round"/>
<path d="M843 13H883M883 13L873 3M883 13L873 23" stroke="#34C44B" stroke-width="5" stroke-linecap="round" stroke-linejoin="round"/>
<path d="M903 13H943M943 13L933 3M943 13L933 23" stroke="#34C44B" stroke-width="5" stroke-linecap="round" stroke-linejoin="round"/>
<path d="M963 13H1003M1003 13L993 3M1003 13L993 23" stroke="#34C44B" stroke-width="5" stroke-linecap="round" stroke-linejoin="round"/>
<path d="M1023 13H1063M1063 13L1053 3M1063 13L1053 23" stroke="#34C44B" stroke-width="5" stroke-linecap="round" stroke-linejoin="round"/>
<path d="M1083 13H1123M1123 13L1113 3M1123 13L1113 23" stroke="#34C44B" stroke-width="5" stroke-linecap="round" stroke-linejoin="round"/>
<path d="M1143 13H1183M1183 13L1173 3M1183 13L1173 23" stroke="#34C44B" stroke-width="5" stroke-linecap="round" stroke-linejoin="round"/>
<path d="M243 13H283M283 13L273 3M283 13L273 23" stroke="#34C44B" stroke-width="5" stroke-linecap="round" stroke-linejoin="round"/>
<path d="M303 13H343M343 13L333 3M343 13L333 23" stroke="#34C44B" stroke-width="5" stroke-linecap="round" stroke-linejoin="round"/>
<path d="M363 13H403M403 13L393 3M403 13L393 23" stroke="#34C44B" stroke-width="5" stroke-linecap="round" stroke-linejoin="round"/>
<path d="M423 13H463M463 13L453 3M463 13L453 23" stroke="#34C44B" stroke-width="5" stroke-linecap="round" stroke-linejoin="round"/>
<path d="M1203 13H1243M1243 13L1233 3M1243 13L1233 23" stroke="#34C44B" stroke-width="5" stroke-linecap="round" stroke-linejoin="round"/>
</g>
</svg>
