<svg width="437" height="146" viewBox="0 0 437 146" fill="none" xmlns="http://www.w3.org/2000/svg">
<g filter="url(#filter0_d_632_159)">
<path d="M2 14H376.02C392.809 14 401.204 14 407.57 17.3708C412.708 20.091 416.909 24.2925 419.629 29.43C423 35.7964 423 44.1909 423 60.98V85.02C423 101.809 423 110.204 419.629 116.57C416.909 121.708 412.708 125.909 407.57 128.629C401.204 132 392.809 132 376.02 132H2V14Z" fill="#548F64"/>
</g>
<path d="M171.769 72.2727C171.769 75.0154 171.256 77.3645 170.228 79.32C169.209 81.2672 167.817 82.7586 166.052 83.7944C164.295 84.8301 162.303 85.348 160.074 85.348C157.845 85.348 155.848 84.8301 154.083 83.7944C152.326 82.7504 150.934 81.2547 149.907 79.3075C148.888 77.352 148.378 75.0071 148.378 72.2727C148.378 69.5301 148.888 67.1851 149.907 65.2379C150.934 63.2824 152.326 61.7868 154.083 60.7511C155.848 59.7153 157.845 59.1974 160.074 59.1974C162.303 59.1974 164.295 59.7153 166.052 60.7511C167.817 61.7868 169.209 63.2824 170.228 65.2379C171.256 67.1851 171.769 69.5301 171.769 72.2727ZM167.133 72.2727C167.133 70.3421 166.831 68.7139 166.226 67.3881C165.629 66.0541 164.801 65.0473 163.74 64.3679C162.68 63.6802 161.457 63.3363 160.074 63.3363C158.69 63.3363 157.468 63.6802 156.407 64.3679C155.347 65.0473 154.514 66.0541 153.909 67.3881C153.312 68.7139 153.014 70.3421 153.014 72.2727C153.014 74.2034 153.312 75.8357 153.909 77.1697C154.514 78.4955 155.347 79.5022 156.407 80.19C157.468 80.8694 158.69 81.2092 160.074 81.2092C161.457 81.2092 162.68 80.8694 163.74 80.19C164.801 79.5022 165.629 78.4955 166.226 77.1697C166.831 75.8357 167.133 74.2034 167.133 72.2727ZM184.81 85V59.5455H189.422V70.3214H201.217V59.5455H205.84V85H201.217V74.1868H189.422V85H184.81ZM214.124 85H209.202L218.164 59.5455H223.856L232.83 85H227.908L221.109 64.7656H220.91L214.124 85ZM214.286 75.0195H227.709V78.7234H214.286V75.0195ZM256.774 68.1339H252.126C251.993 67.3716 251.749 66.6963 251.392 66.108C251.036 65.5114 250.593 65.0059 250.063 64.5916C249.532 64.1773 248.927 63.8666 248.248 63.6594C247.577 63.444 246.852 63.3363 246.073 63.3363C244.689 63.3363 243.463 63.6843 242.394 64.3803C241.325 65.0681 240.488 66.079 239.883 67.413C239.278 68.7388 238.976 70.3587 238.976 72.2727C238.976 74.2199 239.278 75.8606 239.883 77.1946C240.496 78.5204 241.333 79.523 242.394 80.2024C243.463 80.8736 244.685 81.2092 246.06 81.2092C246.823 81.2092 247.535 81.1097 248.198 80.9109C248.869 80.7037 249.47 80.4013 250 80.0036C250.539 79.6058 250.991 79.117 251.355 78.5369C251.728 77.9569 251.985 77.294 252.126 76.5483L256.774 76.5732C256.6 77.7829 256.223 78.9181 255.643 79.9787C255.071 81.0393 254.322 81.9756 253.394 82.7876C252.466 83.5914 251.38 84.2211 250.137 84.6768C248.894 85.1243 247.515 85.348 245.998 85.348C243.761 85.348 241.764 84.8301 240.008 83.7944C238.251 82.7586 236.867 81.263 235.856 79.3075C234.845 77.352 234.34 75.0071 234.34 72.2727C234.34 69.5301 234.85 67.1851 235.869 65.2379C236.888 63.2824 238.276 61.7868 240.032 60.7511C241.789 59.7153 243.778 59.1974 245.998 59.1974C247.415 59.1974 248.733 59.3963 249.951 59.794C251.169 60.1918 252.254 60.7759 253.207 61.5465C254.16 62.3088 254.943 63.2451 255.556 64.3555C256.178 65.4575 256.584 66.717 256.774 68.1339Z" fill="white"/>
<defs>
<filter id="filter0_d_632_159" x="-11.8" y="0.2" width="448.6" height="145.6" filterUnits="userSpaceOnUse" color-interpolation-filters="sRGB">
<feFlood flood-opacity="0" result="BackgroundImageFix"/>
<feColorMatrix in="SourceAlpha" type="matrix" values="0 0 0 0 0 0 0 0 0 0 0 0 0 0 0 0 0 0 127 0" result="hardAlpha"/>
<feMorphology radius="4" operator="dilate" in="SourceAlpha" result="effect1_dropShadow_632_159"/>
<feOffset/>
<feGaussianBlur stdDeviation="4.9"/>
<feComposite in2="hardAlpha" operator="out"/>
<feColorMatrix type="matrix" values="0 0 0 0 0 0 0 0 0 0 0 0 0 0 0 0 0 0 0.25 0"/>
<feBlend mode="normal" in2="BackgroundImageFix" result="effect1_dropShadow_632_159"/>
<feBlend mode="normal" in="SourceGraphic" in2="effect1_dropShadow_632_159" result="shape"/>
</filter>
</defs>
</svg>
